<svg xmlns="http://www.w3.org/2000/svg" viewBox="0 0 240 56" fill="none">
  
  <g>
    <circle cx="28" cy="28" r="22" fill="url(#grad-ball-l)" opacity="0.12"></circle>
    <circle cx="28" cy="28" r="22" stroke="url(#grad-stroke-l)" stroke-width="1.5" fill="none"></circle>
    <polygon points="28,16 36,22 33,32 23,32 20,22" fill="url(#grad-ball-l)" opacity="0.5"></polygon>
    <circle cx="28" cy="10" r="2.5" fill="#0d9488"></circle>
    <circle cx="44" cy="20" r="2.5" fill="#0d9488"></circle>
    <circle cx="40" cy="40" r="2.5" fill="#2563eb"></circle>
    <circle cx="16" cy="40" r="2.5" fill="#2563eb"></circle>
    <circle cx="12" cy="20" r="2.5" fill="#0d9488"></circle>
    <line x1="28" y1="28" x2="28" y2="10" stroke="url(#grad-line-l)" stroke-width="1" opacity="0.5"></line>
    <line x1="28" y1="28" x2="44" y2="20" stroke="url(#grad-line-l)" stroke-width="1" opacity="0.5"></line>
    <line x1="28" y1="28" x2="40" y2="40" stroke="url(#grad-line-l)" stroke-width="1" opacity="0.5"></line>
    <line x1="28" y1="28" x2="16" y2="40" stroke="url(#grad-line-l)" stroke-width="1" opacity="0.5"></line>
    <line x1="28" y1="28" x2="12" y2="20" stroke="url(#grad-line-l)" stroke-width="1" opacity="0.5"></line>
    <circle cx="28" cy="28" r="3.5" fill="url(#grad-ball-l)"></circle>
  </g>
  <text x="62" y="22" font-family="Space Grotesk, Inter, sans-serif" font-size="11" font-weight="600" letter-spacing="0.12em" fill="#64748b">LA</text>
  <text x="62" y="42" font-family="Space Grotesk, Inter, sans-serif" font-size="20" font-weight="700" letter-spacing="-0.01em" fill="#0f172a">QuinielIA</text>

  <defs>
    <linearGradient id="grad-ball-l" x1="0" y1="0" x2="1" y2="1">
      <stop offset="0%" stop-color="#0d9488"></stop>
      <stop offset="100%" stop-color="#2563eb"></stop>
    </linearGradient>
    <linearGradient id="grad-stroke-l" x1="0" y1="0" x2="1" y2="1">
      <stop offset="0%" stop-color="#0d9488"></stop>
      <stop offset="100%" stop-color="#2563eb"></stop>
    </linearGradient>
    <linearGradient id="grad-line-l" x1="0" y1="0" x2="1" y2="1">
      <stop offset="0%" stop-color="#0d9488"></stop>
      <stop offset="100%" stop-color="#2563eb"></stop>
    </linearGradient>
  </defs>
</svg>