<svg xmlns="http://www.w3.org/2000/svg" viewBox="0 0 240 56" fill="none">
  
  <g>
    
    <circle cx="28" cy="28" r="22" fill="url(#grad-ball)" opacity="0.15"></circle>
    <circle cx="28" cy="28" r="22" stroke="url(#grad-stroke)" stroke-width="1.5" fill="none"></circle>
    
    <polygon points="28,16 36,22 33,32 23,32 20,22" fill="url(#grad-ball)" opacity="0.7"></polygon>
    
    <circle cx="28" cy="10" r="2.5" fill="#14B8A6"></circle>
    <circle cx="44" cy="20" r="2.5" fill="#14B8A6"></circle>
    <circle cx="40" cy="40" r="2.5" fill="#3B82F6"></circle>
    <circle cx="16" cy="40" r="2.5" fill="#3B82F6"></circle>
    <circle cx="12" cy="20" r="2.5" fill="#14B8A6"></circle>
    
    <line x1="28" y1="28" x2="28" y2="10" stroke="url(#grad-line)" stroke-width="1" opacity="0.6"></line>
    <line x1="28" y1="28" x2="44" y2="20" stroke="url(#grad-line)" stroke-width="1" opacity="0.6"></line>
    <line x1="28" y1="28" x2="40" y2="40" stroke="url(#grad-line)" stroke-width="1" opacity="0.6"></line>
    <line x1="28" y1="28" x2="16" y2="40" stroke="url(#grad-line)" stroke-width="1" opacity="0.6"></line>
    <line x1="28" y1="28" x2="12" y2="20" stroke="url(#grad-line)" stroke-width="1" opacity="0.6"></line>
    
    <circle cx="28" cy="28" r="3.5" fill="url(#grad-ball)"></circle>
  </g>

  
  <text x="62" y="22" font-family="Space Grotesk, Inter, sans-serif" font-size="11" font-weight="600" letter-spacing="0.12em" fill="#94A3B8" text-transform="uppercase">LA</text>
  <text x="62" y="42" font-family="Space Grotesk, Inter, sans-serif" font-size="20" font-weight="700" letter-spacing="-0.01em" fill="url(#grad-text)">QuinielIA</text>

  <defs>
    <linearGradient id="grad-ball" x1="0" y1="0" x2="1" y2="1">
      <stop offset="0%" stop-color="#14B8A6"></stop>
      <stop offset="100%" stop-color="#3B82F6"></stop>
    </linearGradient>
    <linearGradient id="grad-stroke" x1="0" y1="0" x2="1" y2="1">
      <stop offset="0%" stop-color="#14B8A6"></stop>
      <stop offset="100%" stop-color="#3B82F6"></stop>
    </linearGradient>
    <linearGradient id="grad-line" x1="0" y1="0" x2="1" y2="1">
      <stop offset="0%" stop-color="#14B8A6"></stop>
      <stop offset="100%" stop-color="#3B82F6"></stop>
    </linearGradient>
    <linearGradient id="grad-text" x1="0" y1="0" x2="1" y2="0">
      <stop offset="0%" stop-color="#14B8A6"></stop>
      <stop offset="60%" stop-color="#f1f5f9"></stop>
      <stop offset="100%" stop-color="#f1f5f9"></stop>
    </linearGradient>
  </defs>
</svg>